IKResults
version=1
nRows=7
nColumns=40
inDegrees=yes

Units are S.I. units (second, meters, Newtons, ...)
Angles are in degrees.

endheader
time	pelvis_tilt	pelvis_list	pelvis_rotation	pelvis_tx	pelvis_ty	pelvis_tz	hip_flexion_r	hip_adduction_r	hip_rotation_r	knee_angle_r	knee_angle_r_beta	ankle_angle_r	subtalar_angle_r	mtp_angle_r	hip_flexion_l	hip_adduction_l	hip_rotation_l	knee_angle_l	knee_angle_l_beta	ankle_angle_l	subtalar_angle_l	mtp_angle_l	lumbar_extension	lumbar_bending	lumbar_rotation	arm_flex_r	arm_add_r	arm_rot_r	elbow_flex_r	pro_sup_r	wrist_flex_r	wrist_dev_r	arm_flex_l	arm_add_l	arm_rot_l	elbow_flex_l	pro_sup_l	wrist_flex_l	wrist_dev_l
      0.00000000	    -17.61446839	      4.64714628	     -0.63542748	     -0.66984625	      0.90037642	      0.22210333	     -1.95910479	     -3.07872333	      2.72481470	    -23.33863289	     -0.40733599	    -22.32110657	    -13.26474992	      4.02435320	     54.28368593	    -10.05858578	      2.18977743	    -65.93526655	     -1.15078749	     10.54623363	     18.44693535	     14.85947004	      3.45544823	     -4.87713971	     13.26390625	    -17.85863050	    -26.34429320	     10.77286433	    139.95918038	     89.95437384	      0.00000000	      0.00000000	    -48.76139910	     25.15115990	      3.48373937	    126.70610732	     89.95437384	      0.00000000	      0.00000000
      0.01000000	    -17.82409947	      5.20650512	     -0.17916359	     -0.62980937	      0.90754204	      0.22137715	     -3.99588269	     -3.88611096	      2.38542063	    -21.41169853	     -0.37370464	    -28.05049474	    -14.02409394	      6.10277844	     54.56546123	    -10.88131887	      2.16457713	    -60.48429334	     -1.05565006	      8.16874722	     18.41401627	     14.29448048	      4.09044540	     -5.80055026	     13.27457698	    -17.90364576	    -26.07904234	     11.40923114	    140.89841178	     89.95437384	      0.00000000	      0.00000000	    -50.19199019	     24.91173714	      4.38475720	    127.02066452	     89.95437384	      0.00000000	      0.00000000
      0.02000000	    -18.19945121	      5.42156022	      0.15401090	     -0.59024677	      0.91356792	      0.22104235	     -5.26121870	     -4.28411373	      1.61217568	    -20.26061186	     -0.35361439	    -32.50136299	    -14.52714559	      8.05344754	     54.68557482	    -11.25925841	      1.94108224	    -54.77815501	     -0.95605916	      5.13920940	     18.02502173	     13.71225237	      4.87007259	     -6.34510857	     13.23499018	    -17.87564657	    -25.95586070	     12.04896738	    141.66548472	     89.95437384	      0.00000000	      0.00000000	    -51.52048125	     24.62413119	      5.06448177	    127.37172132	     89.95437384	      0.00000000	      0.00000000
      0.03000000	    -18.40306561	      5.06094278	      0.53079387	     -0.55065507	      0.91855379	      0.22150018	     -6.51176676	     -3.67578579	      1.47332525	    -19.58662797	     -0.34185115	    -33.48108929	    -15.02907438	     18.43365911	     54.32240783	    -11.01657921	      1.44377897	    -49.00024433	     -0.85521560	      1.47529663	     17.89651176	      7.88210032	      5.46027372	     -6.33527568	     12.96964180	    -17.78717659	    -25.99277087	     12.79986502	    142.18967907	     89.95437384	      0.00000000	      0.00000000	    -52.63805517	     24.36788344	      5.64694469	    127.79273076	     89.95437384	      0.00000000	      0.00000000
      0.04000000	    -18.64838819	      4.74960997	      0.71039962	     -0.51135798	      0.92203226	      0.22195475	     -7.12262853	     -3.21512238	      1.16577334	    -20.02117350	     -0.34943540	    -31.80068575	    -16.35998522	     18.47253026	     53.81736431	    -10.73057234	      1.13789217	    -43.33080683	     -0.75626525	     -1.43309331	     17.01145022	      8.06305199	      6.10041097	     -6.32091212	     12.87869795	    -17.84599066	    -26.15710097	     13.28865307	    142.61514639	     89.95437384	      0.00000000	      0.00000000	    -53.51841639	     24.21847921	      6.04988590	    128.31266559	     89.95437384	      0.00000000	      0.00000000
      0.05000000	    -18.77338021	      4.26694963	      0.94943282	     -0.47204062	      0.92438651	      0.22214239	     -7.60120714	     -2.52473244	      0.89637834	    -20.72740797	     -0.36176151	    -29.80598982	    -17.23221430	     18.53212853	     53.03592379	    -10.31758486	      0.98351706	    -37.93350746	     -0.66206460	     -3.85378328	     16.03904986	      8.10086126	      6.59976707	     -6.09213019	     12.54565952	    -17.94053468	    -26.44824025	     13.77147383	    142.87876513	     89.95437384	      0.00000000	      0.00000000	    -54.20246931	     24.00816449	      6.30856126	    128.75138545	     89.95437384	      0.00000000	      0.00000000
      0.06000000	    -18.65434452	      4.42241653	      1.49366516	     -0.43263018	      0.92610956	      0.22140772	     -7.72866008	     -2.77448683	     -0.98515588	    -22.44266222	     -0.39169835	    -27.99576083	    -17.24047664	     20.65070896	     51.66153070	    -10.75199960	      1.10182430	    -32.49653589	     -0.56717155	     -6.25284763	     16.17542882	      6.94323298	      6.74804937	     -6.61799977	     11.80957381	    -17.95310630	    -26.87422451	     14.30577247	    142.97568608	     89.95437384	      0.00000000	      0.00000000	    -54.80787125	     23.92663773	      6.59297982	    129.36639145	     89.95437384	      0.00000000	      0.00000000
